<?xml version="1.0" encoding="UTF-8"?>
<svg fill="#FF0440" width="100pt" height="100pt" version="1.1" viewBox="0 0 100 100" xmlns="http://www.w3.org/2000/svg">
 <g>
  <path d="m49.477 63.344c12.539-0.89844 20.988-4.3164 21.285-17.422l5.1133 4.4727c0.51953 0.45703 1.1641 0.67969 1.8086 0.67969 0.76562 0 1.5273-0.32031 2.0703-0.9375 1-1.1445 0.88281-2.8789-0.25781-3.875l-9.707-8.4883c-0.023437-0.019532-0.050781-0.03125-0.074218-0.054688-0.074219-0.0625-0.15625-0.11719-0.23828-0.16797-0.070312-0.046875-0.14453-0.09375-0.21875-0.13281-0.082031-0.042969-0.16406-0.078125-0.25-0.11328-0.082031-0.03125-0.16406-0.066407-0.25-0.089844-0.082031-0.023438-0.16797-0.039063-0.25-0.058594-0.089843-0.019531-0.17578-0.035156-0.26562-0.042969-0.085938-0.007812-0.17188-0.007812-0.26172-0.007812-0.089844 0-0.17578 0-0.26172 0.007812-0.089844 0.007813-0.17578 0.027344-0.26562 0.042969-0.085937 0.015625-0.16797 0.03125-0.25391 0.058594-0.082031 0.023437-0.16406 0.058594-0.25 0.089844-0.085938 0.035156-0.16797 0.070312-0.25 0.11328-0.074219 0.039062-0.14453 0.085937-0.21484 0.13281-0.082031 0.054688-0.16406 0.10938-0.24219 0.17188-0.023438 0.019532-0.050782 0.03125-0.074219 0.054688l-9.707 8.4883c-1.1406 1-1.2578 2.7344-0.25781 3.875 0.54297 0.62109 1.3047 0.9375 2.0703 0.9375 0.64062 0 1.2852-0.22266 1.8086-0.67969l5.1992-4.5469c-0.13672 8.3398-4.207 11.156-16.195 12.02-7.625 0.54688-13.406 3.3281-17.176 8.2656-6.6484 8.7031-4.3555 20.82-4.2539 21.332 0.25781 1.3086 1.4062 2.2148 2.6953 2.2148 0.17578 0 0.35547-0.019532 0.53516-0.054688 1.4883-0.29297 2.457-1.7383 2.1641-3.2266-0.019531-0.10156-1.9297-10.176 3.2305-16.934 2.7656-3.6367 7.2109-5.6953 13.195-6.125z"/>
  <path d="m22.191 52.086c0.53516 0.53516 1.2383 0.80469 1.9414 0.80469 0.70313 0 1.4062-0.26953 1.9414-0.80469l4.2734-4.2734 4.2734 4.2734c0.53516 0.53516 1.2383 0.80469 1.9414 0.80469s1.4062-0.26953 1.9414-0.80469c1.0742-1.0742 1.0742-2.8125 0-3.8828l-4.2734-4.2734 4.2734-4.2773c1.0742-1.0742 1.0742-2.8125 0-3.8828-1.0742-1.0742-2.8125-1.0742-3.8828 0l-4.2734 4.2734-4.2734-4.2734c-1.0742-1.0742-2.8125-1.0742-3.8828 0-1.0742 1.0742-1.0742 2.8125 0 3.8828l4.2734 4.2773-4.2734 4.2734c-1.0742 1.0703-1.0742 2.8125 0 3.8828z"/>
  <path d="m76.184 69.133c-1.0742-1.0742-2.8125-1.0742-3.8828 0l-4.2734 4.2734-4.2734-4.2734c-1.0742-1.0742-2.8125-1.0742-3.8828 0-1.0742 1.0742-1.0742 2.8125 0 3.8828l4.2734 4.2734-4.2734 4.2734c-1.0742 1.0742-1.0742 2.8125 0 3.8828 0.53516 0.53516 1.2383 0.80469 1.9414 0.80469s1.4062-0.26953 1.9414-0.80469l4.2734-4.2734 4.2734 4.2734c0.53516 0.53516 1.2422 0.80469 1.9414 0.80469 0.70312 0 1.4062-0.26953 1.9414-0.80469 1.0742-1.0742 1.0742-2.8125 0-3.8828l-4.2734-4.2734 4.2734-4.2734c1.0742-1.0703 1.0742-2.8086 0-3.8828z"/>
  <path d="m68.004 12.934c-5.7109 0-10.355 4.6445-10.355 10.355 0 5.7109 4.6445 10.355 10.355 10.355 5.7109 0 10.355-4.6445 10.355-10.355 0.003906-5.707-4.6445-10.355-10.355-10.355zm0 15.219c-2.6797 0-4.8633-2.1797-4.8633-4.8633 0-2.6797 2.1797-4.8594 4.8633-4.8594 2.6797 0 4.8633 2.1797 4.8633 4.8594 0 2.6836-2.1836 4.8633-4.8633 4.8633z"/>
 </g>
</svg>
