<?xml version="1.0" encoding="UTF-8"?>
<svg fill="#FF0440" width="100pt" height="100pt" version="1.1" viewBox="0 0 100 100" xmlns="http://www.w3.org/2000/svg">
 <g>
  <path d="m37.734 22.188c1.1758-0.50391 1.7227-1.8594 1.2266-3.0352-0.5-1.1719-1.8555-1.7227-3.0312-1.2227-13.207 5.6094-21.734 18.5-21.734 32.844 0 9.5273 3.7109 18.484 10.449 25.219 0.44922 0.45312 1.043 0.67969 1.6328 0.67969 0.59375 0 1.1836-0.22656 1.6367-0.67969 0.90234-0.90234 0.90234-2.3633 0-3.2656-5.8633-5.8633-9.0898-13.66-9.0898-21.953-0.003907-12.488 7.418-23.707 18.91-28.586z"/>
  <path d="m87.098 94.832c0.45312 0.44922 1.0469 0.67578 1.6367 0.67578 0.59375 0 1.1836-0.22656 1.6367-0.67578l8.9531-8.9531c0.90625-0.90234 0.90625-2.3633 0.003906-3.2695l-8.9531-8.9531c-0.90234-0.90234-2.3633-0.90234-3.2695 0-0.90234 0.90234-0.90234 2.3633-0.003907 3.2695l4.8906 4.8945-16.52-0.003906c-1.2773 0-2.3125 1.0352-2.3125 2.3125s1.0352 2.3125 2.3125 2.3125h16.75l-5.125 5.1211c-0.90234 0.90234-0.90234 2.3672 0 3.2695z"/>
  <path d="m2.7734 93.992h15.109c1.2773 0 2.3125-1.0352 2.3125-2.3125v-5.2422h29.664c15.953 0 29.879-10.566 34.254-25.805 4.9961-0.64453 9.1445-4.25 10.359-9.2539 0.30078-1.2422-0.46094-2.4922-1.7031-2.793-1.2422-0.29688-2.4922 0.46094-2.793 1.6992-0.83594 3.4492-3.8984 5.8555-7.4531 5.8555-4.2305 0-7.668-3.4414-7.668-7.668 0-4.2305 3.4414-7.668 7.668-7.668 1.9727 0 3.8555 0.77734 5.2695 2.1172l-3.7305 3.7227-0.89062-1.25c-0.74219-1.0391-2.1836-1.2773-3.2266-0.53906-1.0391 0.74219-1.2812 2.1836-0.53906 3.2266l2.4766 3.4688c0.39063 0.55469 1.0117 0.90625 1.6875 0.96094 0.066407 0.003906 0.125 0.007812 0.19141 0.007812 0.61328 0 1.1992-0.24219 1.6328-0.67578l11.582-11.543c0.90625-0.90234 0.90625-2.3672 0.007813-3.2734-0.90234-0.90234-2.3672-0.90625-3.2695-0.003906l-2.6484 2.6406c-2.2734-2.1992-5.3359-3.4844-8.5391-3.4844-0.042969 0-0.085938 0.007812-0.13281 0.007812-5.6055-12.512-17.762-20.641-31.465-21.043l5.0469-5.0469c0.90234-0.90234 0.90234-2.3633 0-3.2695-0.90234-0.90234-2.3711-0.90234-3.2695 0l-8.9531 8.957c-0.90234 0.90234-0.90234 2.3633 0 3.2656l8.9531 8.9531c0.45312 0.44922 1.0469 0.67969 1.6367 0.67969 0.59375 0 1.1836-0.22656 1.6367-0.67969 0.90234-0.90234 0.90234-2.3633 0-3.2695l-4.9648-4.9609c11.492 0.42187 21.719 7.082 26.738 17.379-4.4102 1.8711-7.5156 6.2422-7.5156 11.328 0 5.6914 3.8906 10.477 9.1445 11.871-4.1133 12.727-15.98 21.473-29.516 21.473l-29.672-0.011719v-5.2422c0-1.2773-1.0352-2.3125-2.3125-2.3125h-15.109c-1.2773 0-2.3125 1.0352-2.3125 2.3125v15.109c0 1.2773 1.0352 2.3125 2.3125 2.3125zm2.3164-15.109h10.48v10.48l-10.48 0.003907z"/>
 </g>
</svg>
